<svg xmlns="http://www.w3.org/2000/svg" viewBox="0 0 240.75 72"><defs><style>.a{fill:#1b2a4c;}.b{fill:#ec6e1d;}.c{fill:#fbc009;}.d{fill:#0089a5;}</style></defs><title>logo-nassau3</title><path class="a" d="M6.18,21.8h-6V50.28H5.82a7.69,7.69,0,0,0,5.58-1.9c1.29-1.27,1.93-3.24,1.94-5.9V29.16a7.57,7.57,0,0,0-1.84-5.42A7,7,0,0,0,6.18,21.8ZM9.26,42.88a4.17,4.17,0,0,1-.72,2.7,3,3,0,0,1-2.44.86H4.22V25.64H6.1a2.89,2.89,0,0,1,2.48.92,4.33,4.33,0,0,1,.68,2.6Z" transform="translate(-0.18 0)"/><polygon class="a" points="18 50.28 30.16 50.28 30.16 46.2 22.08 46.2 22.08 37.84 29.12 37.84 29.12 34 22.08 34 22.08 25.64 30.16 25.64 30.16 21.8 18 21.8 18 50.28"/><polygon class="a" points="139.75 38.96 139.67 38.96 133.51 21.8 129.59 21.8 129.59 50.28 133.67 50.28 133.67 33.16 133.75 33.16 139.99 50.28 143.83 50.28 143.83 21.8 139.75 21.8 139.75 38.96"/><path class="a" d="M155.21,21.8l-6.36,28.48h4.08l1.2-6.12h5.56l1.2,6.12H165L158.61,21.8Zm-.36,18.52,2-10.32h.08l2,10.32Z" transform="translate(-0.18 0)"/><path class="a" d="M181.31,23.6a6.83,6.83,0,0,0-4.94-2,7.11,7.11,0,0,0-3.08.62,6.12,6.12,0,0,0-2.18,1.66,7,7,0,0,0-1.3,2.48,10.47,10.47,0,0,0-.44,3,9.93,9.93,0,0,0,.9,4.46,6.51,6.51,0,0,0,3.54,2.86l2.92,1.2a9.2,9.2,0,0,1,1.22.6,1.91,1.91,0,0,1,.72.72,2.94,2.94,0,0,1,.34,1.16c.06.61.08,1.23.08,1.84a12.25,12.25,0,0,1-.08,1.76,3.33,3.33,0,0,1-.38,1.34,2,2,0,0,1-.88.84,3.6,3.6,0,0,1-1.62.3,2.58,2.58,0,0,1-2.22-.9,3.35,3.35,0,0,1-.66-2V42.24h-4.08v1.52a6.69,6.69,0,0,0,.54,2.68A6.56,6.56,0,0,0,173.37,50a7.27,7.27,0,0,0,2.76.52,7.89,7.89,0,0,0,3.32-.64,5.7,5.7,0,0,0,2.18-1.74,7.15,7.15,0,0,0,1.18-2.64,14.48,14.48,0,0,0,.36-3.34,21.49,21.49,0,0,0-.16-2.78,7,7,0,0,0-.62-2.16,4.92,4.92,0,0,0-1.3-1.64,7.42,7.42,0,0,0-2.2-1.22l-3.12-1.24a7.46,7.46,0,0,1-1.26-.64,2.25,2.25,0,0,1-.7-.74,2.52,2.52,0,0,1-.3-1c0-.47-.06-.95-.06-1.42a8,8,0,0,1,.12-1.38,3.44,3.44,0,0,1,.42-1.16,2.28,2.28,0,0,1,.84-.82,2.65,2.65,0,0,1,1.38-.32,2.42,2.42,0,0,1,2.22,1,4.39,4.39,0,0,1,.66,2.42V30h4.08V28a5.9,5.9,0,0,0-.48-2.34A6.38,6.38,0,0,0,181.31,23.6Z" transform="translate(-0.18 0)"/><path class="a" d="M200.55,23.6a6.83,6.83,0,0,0-4.94-2,7.11,7.11,0,0,0-3.08.62,6.12,6.12,0,0,0-2.18,1.66,7,7,0,0,0-1.3,2.48,10.47,10.47,0,0,0-.44,3,9.93,9.93,0,0,0,.9,4.46,6.51,6.51,0,0,0,3.54,2.86l2.92,1.2a9.2,9.2,0,0,1,1.22.6,1.91,1.91,0,0,1,.72.72,2.94,2.94,0,0,1,.34,1.16c.06.61.08,1.23.08,1.84a12.25,12.25,0,0,1-.08,1.76,3.33,3.33,0,0,1-.38,1.34,2,2,0,0,1-.88.84,3.6,3.6,0,0,1-1.62.3,2.58,2.58,0,0,1-2.22-.9,3.35,3.35,0,0,1-.66-2V42.24h-4.08v1.52a6.69,6.69,0,0,0,.54,2.68A6.56,6.56,0,0,0,192.61,50a7.27,7.27,0,0,0,2.76.52,7.89,7.89,0,0,0,3.32-.64,5.7,5.7,0,0,0,2.18-1.74,7.15,7.15,0,0,0,1.18-2.64,14.48,14.48,0,0,0,.36-3.34,21.49,21.49,0,0,0-.16-2.78,7,7,0,0,0-.62-2.16,4.92,4.92,0,0,0-1.3-1.64,7.42,7.42,0,0,0-2.2-1.22L195,33.12a7.46,7.46,0,0,1-1.26-.64,2.25,2.25,0,0,1-.7-.74,2.52,2.52,0,0,1-.3-1c0-.47-.06-.95-.06-1.42a8,8,0,0,1,.12-1.38,3.44,3.44,0,0,1,.42-1.16,2.28,2.28,0,0,1,.84-.82,2.65,2.65,0,0,1,1.38-.32,2.42,2.42,0,0,1,2.22,1,4.39,4.39,0,0,1,.66,2.42V30h4.08V28a5.9,5.9,0,0,0-.48-2.34A6.51,6.51,0,0,0,200.55,23.6Z" transform="translate(-0.18 0)"/><path class="a" d="M213,21.8l-6.36,28.48h4.08l1.2-6.12h5.56l1.2,6.12h4.08L216.37,21.8Zm-.36,18.52,2-10.32h.08l2,10.32Z" transform="translate(-0.18 0)"/><path class="a" d="M236.85,21.8V43.48a3.05,3.05,0,0,1-.72,2.24,2.61,2.61,0,0,1-3.6,0,3.05,3.05,0,0,1-.72-2.24V21.8h-4.08V43.88a6.46,6.46,0,0,0,.52,2.6A6.73,6.73,0,0,0,231.77,50a6.59,6.59,0,0,0,5.12,0,6.73,6.73,0,0,0,3.52-3.52,6.46,6.46,0,0,0,.52-2.6V21.8Z" transform="translate(-0.18 0)"/><path class="b" d="M43.12,8.8s0,26.09,18.15,47.72h0V2h0A59.64,59.64,0,0,0,43.12,8.8Z" transform="translate(-0.18 0)"/><path class="c" d="M116.06,8.8A59.69,59.69,0,0,0,97.9,2h0V56.51h0C116.05,34.89,116.06,8.8,116.06,8.8Z" transform="translate(-0.18 0)"/><path class="a" d="M87.4,38.75V.41h0C84.81.14,82.2,0,79.59,0c0,0-2.42,0-6.19.27h0L87.2,38.75Z" transform="translate(-0.18 0)"/><path class="d" d="M71.78,23.84V66.69h0A72.38,72.38,0,0,0,79.58,72h0a72.44,72.44,0,0,0,8-5.47h0L72,23.84Z" transform="translate(-0.18 0)"/></svg>